PathFileType  4	(X/Y/Z) C:\Users\antoi\Documents\MyRepositories\mobilecap\ResultsAnalysis
DataRate	CameraRate	NumFrames	NumMarkers	Units	OrigDataRate	OrigDataStartFrame	OrigNumFrames
100.0	100.0	4	51	mm	100.0	1	1280
Frame#	Time	r_knee			r_shank_antsup			r_ankle			r_calc			r_5meta			r_toe			L_knee			L_shank_antsup			L_ankle			L_calc			L_5meta			L_toe			r_sh2			r_sh3			r_sh4			L_sh2			L_sh3			r_thigh1			r_thigh2			r_thigh3			r_thigh4			r_thigh5			L_thigh1			L_thigh2			L_thigh3			L_thigh4			r.ASIS			r.PSIS			L.ASIS			L.PSIS			C7			R_Shoulder			L_Shoulder			R_Sternum			L_Sternum			R_humerus			R_elbow_med			R_elbow_lat			R_forearm			R_wrist_radius			R_wrist_ulna			L_humerus			L_elbow_med			L_elbow_lat			L_forearm			L_wrist_radius			L_wrist_ulna			R_HJC			L_HJC			R_HJC_reg			L_HJC_reg			
		X1	Y1	Z1	X2	Y2	Z2	X3	Y3	Z3	X4	Y4	Z4	X5	Y5	Z5	X6	Y6	Z6	X7	Y7	Z7	X8	Y8	Z8	X9	Y9	Z9	X10	Y10	Z10	X11	Y11	Z11	X12	Y12	Z12	X13	Y13	Z13	X14	Y14	Z14	X15	Y15	Z15	X16	Y16	Z16	X17	Y17	Z17	X18	Y18	Z18	X19	Y19	Z19	X20	Y20	Z20	X21	Y21	Z21	X22	Y22	Z22	X23	Y23	Z23	X24	Y24	Z24	X25	Y25	Z25	X26	Y26	Z26	X27	Y27	Z27	X28	Y28	Z28	X29	Y29	Z29	X30	Y30	Z30	X31	Y31	Z31	X32	Y32	Z32	X33	Y33	Z33	X34	Y34	Z34	X35	Y35	Z35	X36	Y36	Z36	X37	Y37	Z37	X38	Y38	Z38	X39	Y39	Z39	X40	Y40	Z40	X41	Y41	Z41	X42	Y42	Z42	X43	Y43	Z43	X44	Y44	Z44	X45	Y45	Z45	X46	Y46	Z46	X47	Y47	Z47	X48	Y48	Z48	X49	Y49	Z49	X50	Y50	Z50	X51	Y51	Z51	

1	0.00000000	-262.86294	476.20238	-383.14959	-229.49696	369.43616	-383.43252	-294.15140	92.77397	-382.73162	-335.16826	52.26707	-437.19282	-184.58414	38.99418	-334.86157	-143.70982	57.31145	-373.80524	-259.11965	474.00611	-800.60445	-221.07496	375.42259	-776.96270	-300.42789	91.05259	-818.97577	-338.79630	51.73712	-768.71944	-181.52699	36.23930	-853.01277	-138.16277	57.34554	-803.83319	-236.90272	257.39994	-385.38356	-290.81027	371.25304	-338.34955	-311.69643	261.63367	-352.54114	-282.37929	404.76556	-836.30686	-294.40042	285.54271	-858.65646	-162.50902	773.08076	-422.29377	-163.00249	665.00812	-403.73770	-210.71756	646.05035	-360.66396	-267.93587	776.35592	-383.67399	-264.43243	661.76635	-365.72684	-168.33616	760.38672	-774.79589	-165.52084	621.93341	-790.19092	-277.33498	768.21974	-808.37359	-273.82750	627.67821	-815.45885	-139.49463	927.24072	-464.79260	-314.36264	990.62872	-542.53009	-129.04427	924.93476	-713.76117	-312.50792	990.34136	-658.89495	-314.24756	1427.93592	-601.37330	-261.51169	1398.56299	-445.37017	-251.42689	1404.49342	-757.74297	-188.59372	1385.69934	-582.96238	-185.80478	1381.95691	-622.90558	-234.66154	1270.77551	-383.08420	-288.57986	1069.82946	-438.43314	-265.69817	1076.89527	-366.90462	-205.76350	967.24718	-345.38775	-162.43213	872.51019	-346.55219	-194.48414	861.26219	-331.71431	-219.15959	1254.67042	-819.06067	-268.12401	1063.11511	-760.95519	-254.60623	1070.95468	-835.46587	-198.84884	990.26869	-855.88583	-147.54710	868.61615	-847.15448	-174.01907	859.74969	-865.01736	-236.55445	866.60407	-496.32994	-224.54885	860.81476	-685.23810	-217.14378	864.64597	-500.89893	-214.52265	864.23987	-665.34853	
2	0.01000000	-262.82629	476.21754	-383.15030	-229.52810	369.40001	-383.37574	-294.13322	92.97600	-382.51509	-335.16619	52.24142	-437.18111	-184.59668	39.11694	-334.81123	-143.69188	57.30726	-373.84066	-259.13118	473.99725	-800.55338	-221.05897	375.43849	-776.97505	-300.42463	90.99440	-819.01510	-338.79235	51.62805	-768.58970	-181.52764	36.23138	-853.01594	-138.12415	57.33686	-803.90774	-236.93332	257.34937	-385.34733	-290.79504	371.24069	-338.34336	-311.68363	261.61807	-352.53933	-282.38416	404.76083	-836.30241	-294.47909	285.63561	-858.94096	-162.51008	772.97198	-422.33188	-163.02064	665.00522	-403.70227	-210.78007	646.06211	-360.63811	-267.90497	776.37999	-383.74944	-264.24326	662.21903	-365.53026	-168.15105	760.50973	-774.67207	-165.54138	621.90506	-790.09426	-277.33490	768.23525	-808.37014	-273.86393	627.55750	-815.29703	-139.49590	927.29387	-464.67565	-314.34647	990.63172	-542.51681	-129.04700	924.88957	-713.76061	-312.47167	990.33356	-658.82887	-314.18468	1427.88859	-601.44974	-261.41743	1398.57212	-445.39862	-251.41602	1404.49174	-757.71194	-188.58355	1385.74762	-583.11272	-185.78514	1381.94531	-622.90709	-234.57029	1270.75083	-383.09560	-288.56591	1069.83959	-438.42328	-265.63403	1076.91213	-366.89847	-205.74389	967.22779	-345.40049	-162.44070	872.50281	-346.53344	-194.51722	861.28567	-331.60201	-219.15910	1254.66658	-819.18153	-268.12055	1063.12094	-760.94884	-254.61397	1070.81402	-835.33025	-198.80629	990.23564	-855.91314	-147.47610	868.58705	-847.14583	-173.90204	859.67873	-864.91519	-236.54612	866.63821	-496.25023	-224.54036	860.78554	-685.15642	-217.15507	864.60595	-500.81041	-214.50310	864.18419	-665.33681	
3	0.02000000	-262.79512	476.19120	-383.16877	-229.52260	369.36907	-383.36186	-294.13543	93.06103	-382.42317	-335.16211	52.23135	-437.17380	-184.60439	39.14607	-334.78519	-143.68595	57.30534	-373.86032	-259.12321	473.97766	-800.48603	-221.08149	375.42492	-776.99872	-300.42139	90.96926	-819.02862	-338.78216	51.60055	-768.56052	-181.53175	36.22174	-853.02259	-138.09727	57.32699	-803.92145	-236.97638	257.37588	-385.33752	-290.79039	371.23500	-338.34215	-311.67791	261.61325	-352.53615	-282.40163	404.76650	-836.30167	-294.49415	285.67234	-859.02964	-162.51339	772.89306	-422.35662	-162.98122	664.92800	-403.76458	-210.79499	646.08079	-360.67362	-267.91636	776.37770	-383.72574	-264.31111	662.11448	-365.56566	-168.20322	760.47341	-774.69346	-165.54940	621.87565	-790.03482	-277.34106	768.23804	-808.36118	-273.90495	627.48992	-815.22517	-139.49932	927.27989	-464.61092	-314.33495	990.63745	-542.50580	-129.04215	924.86457	-713.75661	-312.45137	990.34599	-658.77022	-314.15171	1427.87813	-601.46103	-261.34714	1398.56557	-445.41084	-251.38993	1404.43937	-757.70990	-188.56470	1385.75823	-583.15687	-185.78836	1381.94959	-622.93464	-234.49495	1270.72931	-383.18830	-288.55629	1069.84362	-438.41327	-265.58029	1076.89243	-366.93093	-205.73984	967.20778	-345.41106	-162.44525	872.47787	-346.55741	-194.54605	861.28058	-331.56669	-219.15369	1254.63248	-819.15495	-268.10674	1063.11501	-760.94374	-254.56718	1070.83059	-835.42208	-198.77187	990.22198	-855.92641	-147.41460	868.58107	-847.15716	-173.81774	859.65094	-864.87993	-236.55482	866.63629	-496.21477	-224.54716	860.77941	-685.12071	-217.17276	864.57133	-500.76631	-214.50665	864.15880	-665.33286	
4	0.03000000	-262.77522	476.15684	-383.18202	-229.49421	369.33673	-383.36541	-294.14081	92.93457	-382.56307	-335.16313	52.23368	-437.18292	-184.60924	39.12913	-334.77804	-143.69135	57.30235	-373.86768	-259.12439	473.94736	-800.45788	-221.10499	375.39986	-777.03497	-300.41757	90.96265	-819.02300	-338.78160	51.63091	-768.63138	-181.53030	36.20978	-853.01701	-138.10783	57.31609	-803.89031	-236.99809	257.38724	-385.31896	-290.79759	371.22989	-338.34329	-311.68511	261.61571	-352.53372	-282.41709	404.77094	-836.28879	-294.47485	285.64593	-858.97592	-162.50716	772.86505	-422.35845	-162.96116	664.89951	-403.77271	-210.75602	646.06587	-360.68666	-267.94488	776.35475	-383.64438	-264.41277	661.87171	-365.64732	-168.32320	760.38830	-774.75834	-165.56239	621.85368	-790.03479	-277.36374	768.22999	-808.36320	-273.94481	627.50805	-815.26447	-139.49955	927.23343	-464.60058	-314.30436	990.65646	-542.49948	-129.03674	924.84839	-713.74769	-312.44484	990.35637	-658.73123	-314.13632	1427.88239	-601.44247	-261.29742	1398.55826	-445.40304	-251.36111	1404.37277	-757.69242	-188.53990	1385.74493	-583.12916	-185.79227	1381.95432	-622.95816	-234.42860	1270.71158	-383.29474	-288.54955	1069.84313	-438.40719	-265.55253	1076.89013	-366.94471	-205.73158	967.18553	-345.42741	-162.45568	872.44311	-346.58620	-194.58305	861.29620	-331.57260	-219.14367	1254.58910	-819.07700	-268.08995	1063.10491	-760.93774	-254.49681	1070.88436	-835.56571	-198.73104	990.21706	-855.92049	-147.35532	868.59194	-847.18205	-173.75031	859.64411	-864.89795	-236.56458	866.62143	-496.20733	-224.56327	860.78019	-685.11417	-217.17965	864.58231	-500.73538	-214.54682	864.15742	-665.30331	
